<svg width="32" height="32" viewBox="0 0 32 32" fill="none" xmlns="http://www.w3.org/2000/svg">
<g clip-path="url(#clip0_0_4662)">
<path d="M28.7148 23.8589H26.2041C26.0327 23.8589 25.8719 23.9339 25.7648 24.066C25.5148 24.3696 25.2469 24.6624 24.9648 24.941C23.8109 26.0961 22.444 27.0167 20.9398 27.6517C19.3814 28.3099 17.7065 28.6476 16.0148 28.6446C14.3041 28.6446 12.6469 28.3089 11.0898 27.6517C9.58562 27.0167 8.21875 26.0961 7.0648 24.941C5.90878 23.7898 4.98701 22.4253 4.35052 20.9232C3.6898 19.366 3.35766 17.7124 3.35766 16.0017C3.35766 14.291 3.69337 12.6374 4.35052 11.0803C4.98623 9.57673 5.90052 8.22316 7.0648 7.06244C8.22909 5.90173 9.58266 4.98744 11.0898 4.35173C12.6469 3.69459 14.3041 3.35887 16.0148 3.35887C17.7255 3.35887 19.3827 3.69101 20.9398 4.35173C22.4469 4.98744 23.8005 5.90173 24.9648 7.06244C25.2469 7.34459 25.5112 7.63744 25.7648 7.93744C25.8719 8.06959 26.0362 8.14459 26.2041 8.14459H28.7148C28.9398 8.14459 29.0791 7.89459 28.9541 7.7053C26.2148 3.44816 21.4219 0.6303 15.9755 0.644585C7.41837 0.666014 0.557658 7.61244 0.643373 16.1589C0.729087 24.5696 7.57909 31.3589 16.0148 31.3589C21.4469 31.3589 26.2184 28.5446 28.9541 24.2982C29.0755 24.1089 28.9398 23.8589 28.7148 23.8589ZM31.8898 15.7767L26.8219 11.7767C26.6327 11.6267 26.3577 11.7624 26.3577 12.0017V14.716H15.1434C14.9862 14.716 14.8577 14.8446 14.8577 15.0017V17.0017C14.8577 17.1589 14.9862 17.2874 15.1434 17.2874H26.3577V20.0017C26.3577 20.241 26.6362 20.3767 26.8219 20.2267L31.8898 16.2267C31.924 16.2 31.9516 16.1659 31.9706 16.1269C31.9896 16.0879 31.9994 16.0451 31.9994 16.0017C31.9994 15.9584 31.9896 15.9156 31.9706 15.8766C31.9516 15.8376 31.924 15.8035 31.8898 15.7767Z" fill="white" fill-opacity="0.85"/>
</g>
<defs>
<clipPath id="clip0_0_4662">
<rect width="32" height="32" fill="white"/>
</clipPath>
</defs>
</svg>
